<?xml version="1.0" encoding="utf-8" standalone="no"?>
<!DOCTYPE svg PUBLIC "-//W3C//DTD SVG 1.1//EN"
  "http://www.w3.org/Graphics/SVG/1.1/DTD/svg11.dtd">
<!-- Created with matplotlib (http://matplotlib.org/) -->
<svg height="432pt" version="1.1" viewBox="0 0 576 432" width="576pt" xmlns="http://www.w3.org/2000/svg" xmlns:xlink="http://www.w3.org/1999/xlink">
 <defs>
  <style type="text/css">
*{stroke-linecap:butt;stroke-linejoin:round;stroke-miterlimit:100000;}
  </style>
 </defs>
 <g id="figure_1">
  <g id="patch_1">
   <path d="M 0 432 
L 576 432 
L 576 0 
L 0 0 
z
" style="fill:#ffffff;"/>
  </g>
  <g id="axes_1">
   <g id="patch_2">
    <path d="M 72 388.8 
L 518.4 388.8 
L 518.4 43.2 
L 72 43.2 
z
" style="fill:#ffffff;"/>
   </g>
   <g id="line2d_1">
    <path clip-path="url(#p35956ffc88)" d="M 72 239.497898 
L 73.488 246.087844 
L 74.976 306.992645 
L 76.464 214.690483 
L 77.952 299.744078 
L 80.928 233.60298 
L 82.416 151.056386 
L 83.904 361.19572 
L 85.392 289.116315 
L 86.88 224.063745 
L 88.368 328.237922 
L 89.856 240.775582 
L 91.344 200.160993 
L 92.832 305.682773 
L 94.32 313.942235 
L 95.808 226.308479 
L 97.296 287.013601 
L 98.784 244.719271 
L 100.272 255.311789 
L 101.76 308.475492 
L 103.248 164.942254 
L 104.736 156.051326 
L 106.224 345.389484 
L 107.712 234.179301 
L 109.2 322.962332 
L 110.688 140.836552 
L 112.176 272.278439 
L 113.664 309.045465 
L 115.152 325.925275 
L 116.64 209.612755 
L 118.128 228.013415 
L 119.616 267.977169 
L 121.104 167.472344 
L 124.08 251.50488 
L 125.568 207.938075 
L 127.056 142.003946 
L 128.544 250.74271 
L 130.032 189.283737 
L 131.52 343.115994 
L 133.008 190.970531 
L 134.496 323.954945 
L 135.984 288.170393 
L 137.472 296.138003 
L 138.96 302.93944 
L 140.448 285.569758 
L 141.936 276.974215 
L 143.424 139.259561 
L 144.912 206.274752 
L 146.4 305.35308 
L 147.888 193.286008 
L 149.376 313.490133 
L 150.864 307.26811 
L 152.352 251.405953 
L 153.84 239.659055 
L 155.328 306.040366 
L 156.816 304.766406 
L 158.304 313.42511 
L 159.792 262.917372 
L 161.28 204.611024 
L 162.768 275.184168 
L 164.256 318.487011 
L 165.744 98.569954 
L 167.232 298.43221 
L 170.208 270.116789 
L 171.696 236.412545 
L 173.184 291.889873 
L 174.672 125.911452 
L 176.16 279.75269 
L 177.648 250.582143 
L 179.136 180.738411 
L 180.624 149.372205 
L 183.6 303.637952 
L 185.088 147.512295 
L 186.576 156.196484 
L 188.064 285.089719 
L 189.552 199.358276 
L 191.04 340.75315 
L 192.528 244.52872 
L 194.016 298.586291 
L 195.504 251.975003 
L 196.992 230.687905 
L 198.48 185.439829 
L 199.968 243.048855 
L 201.456 323.535615 
L 202.944 252.025244 
L 204.432 258.939699 
L 205.92 250.913932 
L 207.408 278.275179 
L 208.896 282.466246 
L 210.384 264.410895 
L 211.872 250.093672 
L 213.36 328.096314 
L 214.848 256.454352 
L 216.336 172.359475 
L 217.824 315.741909 
L 219.312 308.534644 
L 220.8 349.691121 
L 222.288 232.475152 
L 223.776 333.866695 
L 225.264 244.490242 
L 226.752 179.070911 
L 228.24 285.407966 
L 229.728 233.202455 
L 231.216 286.119555 
L 232.704 285.073946 
L 234.192 238.165357 
L 235.68 360.835786 
L 237.168 326.185049 
L 238.656 257.42917 
L 240.144 202.766965 
L 241.632 257.954952 
L 243.12 237.315857 
L 244.608 274.838506 
L 246.096 231.409495 
L 247.584 280.838802 
L 249.072 224.85733 
L 250.56 266.03252 
L 252.048 311.782117 
L 253.536 333.84505 
L 255.024 121.650831 
L 256.512 237.184698 
L 258 317.222751 
L 259.488 229.05723 
L 260.976 293.991354 
L 262.464 229.23483 
L 263.952 264.084805 
L 265.44 310.997806 
L 266.928 154.211824 
L 268.416 155.762639 
L 269.904 268.820515 
L 271.392 356.063953 
L 272.88 273.082292 
L 274.368 172.211552 
L 275.856 296.444975 
L 277.344 227.581727 
L 278.832 233.669328 
L 280.32 298.76413 
L 281.808 232.088031 
L 283.296 302.956968 
L 284.784 212.586123 
L 286.272 220.106187 
L 287.76 331.202166 
L 289.248 232.920403 
L 290.736 107.44268 
L 292.224 188.861826 
L 293.712 258.389934 
L 295.2 227.359471 
L 296.688 255.526177 
L 298.176 320.242343 
L 299.664 311.990407 
L 301.152 271.691314 
L 302.64 281.555427 
L 304.128 236.831483 
L 305.616 301.356824 
L 307.104 280.498676 
L 308.592 270.990868 
L 310.08 277.767247 
L 311.568 313.292436 
L 313.056 279.462793 
L 314.544 255.987264 
L 316.032 286.670364 
L 317.52 205.246586 
L 319.008 314.679024 
L 320.496 270.112529 
L 321.984 148.821295 
L 323.472 313.212999 
L 324.96 238.374911 
L 326.448 331.652339 
L 327.936 115.994478 
L 329.424 210.205836 
L 330.912 223.890156 
L 332.4 298.594321 
L 333.888 239.173577 
L 335.376 222.752546 
L 336.864 273.291246 
L 338.352 104.945762 
L 339.84 221.087583 
L 341.328 123.386956 
L 342.816 293.204651 
L 344.304 352.364957 
L 345.792 273.733242 
L 347.28 312.897216 
L 348.768 296.763859 
L 350.256 283.628376 
L 351.744 304.152992 
L 353.232 197.966363 
L 354.72 260.093094 
L 356.208 128.08511 
L 357.696 331.341408 
L 359.184 209.954526 
L 360.672 286.833134 
L 362.16 259.267665 
L 363.648 301.12161 
L 365.136 356.726913 
L 366.624 203.543254 
L 368.112 295.853653 
L 369.6 269.499891 
L 371.088 213.2824 
L 372.576 325.911732 
L 374.064 114.798256 
L 375.552 257.08879 
L 377.04 206.267322 
L 378.528 297.289938 
L 380.016 328.749222 
L 381.504 271.71405 
L 382.992 246.126602 
L 384.48 231.688448 
L 385.968 252.248725 
L 387.456 275.203609 
L 388.944 195.741396 
L 390.432 147.715225 
L 391.92 311.131776 
L 393.408 307.603491 
L 394.896 168.305767 
L 396.384 190.46601 
L 397.872 259.200263 
L 399.36 256.09399 
L 400.848 336.248503 
L 402.336 265.89553 
L 403.824 287.220941 
L 405.312 167.98843 
L 406.8 244.095351 
L 408.288 192.40224 
L 409.776 319.517779 
L 411.264 249.536355 
L 412.752 195.040225 
L 414.24 345.018363 
L 415.728 252.385015 
L 417.216 310.492902 
L 418.704 289.54446 
L 420.192 154.761304 
L 421.68 262.705529 
L 423.168 242.810617 
L 424.656 200.970927 
L 426.144 237.49307 
L 427.632 225.704669 
L 429.12 335.037423 
L 430.608 306.203748 
L 432.096 325.391814 
L 433.584 188.206836 
L 435.072 181.335553 
L 436.56 203.25564 
L 438.048 340.266176 
L 439.536 151.495261 
L 441.024 299.160859 
L 442.512 242.291774 
L 444 251.924721 
L 445.488 348.229282 
L 446.976 232.97262 
L 448.464 144.19747 
L 449.952 201.956697 
L 451.44 338.809158 
L 451.44 338.809158 
" style="fill:none;stroke:#ff0000;stroke-linecap:square;"/>
   </g>
   <g id="line2d_2">
    <path clip-path="url(#p35956ffc88)" d="M 451.44 254.079537 
L 518.4 254.079537 
" style="fill:none;stroke:#ff0000;stroke-dasharray:6.000000,6.000000;stroke-dashoffset:0.0;stroke-width:2.0;"/>
   </g>
   <g id="line2d_3">
    <path clip-path="url(#p35956ffc88)" d="M 72 226.046176 
L 73.488 245.40876 
L 74.976 217.596121 
L 76.464 232.506621 
L 77.952 241.138816 
L 79.44 257.69813 
L 80.928 215.5171 
L 82.416 220.065627 
L 83.904 219.362255 
L 85.392 239.577112 
L 86.88 217.385479 
L 88.368 204.848051 
L 89.856 233.809995 
L 91.344 206.409832 
L 92.832 231.267574 
L 94.32 240.744533 
L 95.808 245.193395 
L 97.296 244.44315 
L 98.784 226.550835 
L 100.272 188.299375 
L 101.76 254.83751 
L 103.248 223.151647 
L 104.736 231.327645 
L 106.224 210.703228 
L 107.712 220.908924 
L 109.2 246.015774 
L 110.688 228.036392 
L 112.176 226.25071 
L 113.664 221.886452 
L 115.152 226.791149 
L 116.64 214.97642 
L 118.128 217.251142 
L 119.616 230.109377 
L 121.104 213.140862 
L 122.592 203.430547 
L 124.08 206.677747 
L 125.568 228.041448 
L 128.544 176.197202 
L 130.032 247.985436 
L 131.52 255.211551 
L 133.008 214.270517 
L 134.496 222.179846 
L 135.984 217.394799 
L 137.472 202.966461 
L 138.96 254.393273 
L 141.936 230.724036 
L 143.424 248.986674 
L 144.912 264.853273 
L 146.4 213.575478 
L 147.888 237.966746 
L 149.376 252.888751 
L 150.864 201.862562 
L 152.352 215.022166 
L 153.84 220.761428 
L 155.328 220.547363 
L 156.816 238.302749 
L 158.304 240.034844 
L 159.792 222.335798 
L 161.28 206.600304 
L 162.768 248.380072 
L 164.256 249.753365 
L 165.744 227.795235 
L 167.232 225.027202 
L 168.72 219.123461 
L 170.208 235.068239 
L 171.696 240.932485 
L 173.184 230.069454 
L 174.672 241.337585 
L 176.16 250.822271 
L 177.648 233.576655 
L 179.136 226.322765 
L 180.624 221.434152 
L 182.112 240.187655 
L 183.6 242.049119 
L 185.088 260.040985 
L 186.576 201.880092 
L 188.064 228.596472 
L 189.552 238.191052 
L 191.04 204.137837 
L 192.528 228.546326 
L 194.016 220.672465 
L 195.504 244.551306 
L 196.992 199.782814 
L 198.48 214.107716 
L 199.968 221.152638 
L 201.456 252.804982 
L 202.944 249.488672 
L 204.432 204.937627 
L 205.92 217.242725 
L 207.408 254.139576 
L 208.896 257.483906 
L 210.384 228.443756 
L 211.872 222.075259 
L 213.36 238.174581 
L 214.848 203.234187 
L 216.336 178.222123 
L 217.824 232.181567 
L 219.312 243.488994 
L 220.8 251.639841 
L 222.288 239.239229 
L 223.776 242.631658 
L 225.264 252.974092 
L 226.752 220.353353 
L 228.24 214.289804 
L 229.728 235.154515 
L 231.216 227.484985 
L 232.704 251.989343 
L 234.192 239.293735 
L 235.68 251.993453 
L 237.168 113.137083 
L 238.656 247.756929 
L 240.144 199.092272 
L 241.632 179.586798 
L 243.12 230.889093 
L 244.608 197.856578 
L 246.096 211.248094 
L 247.584 232.188965 
L 249.072 229.94789 
L 250.56 231.8278 
L 252.048 242.832622 
L 253.536 204.516974 
L 255.024 247.945542 
L 256.512 251.130887 
L 258 268.884874 
L 260.976 210.459988 
L 262.464 229.434991 
L 263.952 242.50933 
L 265.44 209.794433 
L 266.928 226.737421 
L 268.416 255.213823 
L 269.904 242.42601 
L 271.392 219.32912 
L 272.88 213.744237 
L 274.368 250.281341 
L 275.856 256.453622 
L 277.344 225.839681 
L 278.832 223.323603 
L 280.32 203.552354 
L 281.808 237.638834 
L 283.296 238.882551 
L 284.784 229.552292 
L 286.272 255.94788 
L 287.76 228.344978 
L 289.248 219.214691 
L 290.736 242.38356 
L 292.224 242.205565 
L 293.712 211.073902 
L 295.2 206.075472 
L 296.688 255.726087 
L 298.176 177.643344 
L 299.664 226.808431 
L 301.152 245.616695 
L 302.64 217.563643 
L 304.128 211.539053 
L 305.616 240.437813 
L 307.104 211.330473 
L 308.592 218.082936 
L 310.08 129.095492 
L 311.568 257.625684 
L 313.056 250.382835 
L 314.544 247.32994 
L 316.032 228.985925 
L 317.52 208.919518 
L 319.008 205.339555 
L 320.496 225.962537 
L 321.984 223.58452 
L 323.472 216.473881 
L 324.96 236.173652 
L 326.448 247.854049 
L 327.936 201.391147 
L 329.424 200.449073 
L 330.912 229.632778 
L 332.4 207.98715 
L 333.888 203.741613 
L 335.376 225.783378 
L 336.864 229.403982 
L 338.352 233.814265 
L 339.84 224.314479 
L 341.328 239.219469 
L 342.816 193.057382 
L 344.304 251.428424 
L 345.792 227.342904 
L 347.28 232.322522 
L 348.768 259.768467 
L 350.256 223.218688 
L 353.232 244.204891 
L 354.72 221.424617 
L 356.208 217.139638 
L 357.696 223.586766 
L 359.184 160.969238 
L 360.672 213.796571 
L 362.16 248.204704 
L 363.648 204.892617 
L 365.136 242.508898 
L 366.624 248.62468 
L 368.112 206.297819 
L 369.6 238.67908 
L 371.088 249.307529 
L 372.576 222.771726 
L 374.064 244.244056 
L 375.552 169.651185 
L 377.04 213.615896 
L 378.528 233.997772 
L 380.016 233.508567 
L 381.504 243.126943 
L 382.992 222.712494 
L 384.48 247.229514 
L 385.968 240.32418 
L 387.456 225.025284 
L 388.944 259.425275 
L 390.432 231.339079 
L 391.92 209.123977 
L 393.408 239.788185 
L 394.896 201.426252 
L 396.384 255.400638 
L 397.872 173.294821 
L 399.36 194.885 
L 400.848 231.737537 
L 402.336 218.016016 
L 403.824 109.612214 
L 405.312 244.897271 
L 406.8 245.725125 
L 408.288 239.006274 
L 409.776 258.690238 
L 411.264 205.901858 
L 412.752 255.270171 
L 414.24 224.500545 
L 415.728 250.820522 
L 417.216 242.698502 
L 418.704 215.310656 
L 420.192 251.180136 
L 421.68 248.10209 
L 423.168 207.645711 
L 424.656 226.280968 
L 426.144 239.808622 
L 427.632 223.344453 
L 429.12 247.872645 
L 430.608 234.267917 
L 432.096 237.46773 
L 433.584 227.775114 
L 435.072 270.417274 
L 436.56 248.269993 
L 438.048 229.814711 
L 439.536 248.480403 
L 441.024 233.064632 
L 442.512 254.663634 
L 444 231.296658 
L 445.488 236.782226 
L 446.976 229.909041 
L 448.464 232.033777 
L 449.952 214.267952 
L 451.44 229.798402 
L 451.44 229.798402 
" style="fill:none;stroke:#000000;stroke-linecap:square;"/>
   </g>
   <g id="line2d_4">
    <path clip-path="url(#p35956ffc88)" d="M 451.44 227.670176 
L 518.4 227.670176 
" style="fill:none;stroke:#000000;stroke-dasharray:6.000000,6.000000;stroke-dashoffset:0.0;stroke-width:2.0;"/>
   </g>
   <g id="patch_3">
    <path d="M 72 43.2 
L 518.4 43.2 
" style="fill:none;stroke:#000000;stroke-linecap:square;stroke-linejoin:miter;"/>
   </g>
   <g id="patch_4">
    <path d="M 518.4 388.8 
L 518.4 43.2 
" style="fill:none;stroke:#000000;stroke-linecap:square;stroke-linejoin:miter;"/>
   </g>
   <g id="patch_5">
    <path d="M 72 388.8 
L 518.4 388.8 
" style="fill:none;stroke:#000000;stroke-linecap:square;stroke-linejoin:miter;"/>
   </g>
   <g id="patch_6">
    <path d="M 72 388.8 
L 72 43.2 
" style="fill:none;stroke:#000000;stroke-linecap:square;stroke-linejoin:miter;"/>
   </g>
   <g id="matplotlib.axis_1">
    <g id="xtick_1">
     <g id="line2d_5">
      <defs>
       <path d="M 0 0 
L 0 -4 
" id="m909b7837db" style="stroke:#000000;stroke-width:0.5;"/>
      </defs>
      <g>
       <use style="stroke:#000000;stroke-width:0.5;" x="72.0" xlink:href="#m909b7837db" y="388.8"/>
      </g>
     </g>
     <g id="line2d_6">
      <defs>
       <path d="M 0 0 
L 0 4 
" id="m2b7e795995" style="stroke:#000000;stroke-width:0.5;"/>
      </defs>
      <g>
       <use style="stroke:#000000;stroke-width:0.5;" x="72.0" xlink:href="#m2b7e795995" y="43.2"/>
      </g>
     </g>
     <g id="text_1">
      <!-- 0 -->
      <defs>
       <path d="M 31.78125 66.40625 
Q 24.171875 66.40625 20.328125 58.90625 
Q 16.5 51.421875 16.5 36.375 
Q 16.5 21.390625 20.328125 13.890625 
Q 24.171875 6.390625 31.78125 6.390625 
Q 39.453125 6.390625 43.28125 13.890625 
Q 47.125 21.390625 47.125 36.375 
Q 47.125 51.421875 43.28125 58.90625 
Q 39.453125 66.40625 31.78125 66.40625 
M 31.78125 74.21875 
Q 44.046875 74.21875 50.515625 64.515625 
Q 56.984375 54.828125 56.984375 36.375 
Q 56.984375 17.96875 50.515625 8.265625 
Q 44.046875 -1.421875 31.78125 -1.421875 
Q 19.53125 -1.421875 13.0625 8.265625 
Q 6.59375 17.96875 6.59375 36.375 
Q 6.59375 54.828125 13.0625 64.515625 
Q 19.53125 74.21875 31.78125 74.21875 
" id="BitstreamVeraSans-Roman-30"/>
      </defs>
      <g transform="translate(68.1825 401.918125)scale(0.12 -0.12)">
       <use xlink:href="#BitstreamVeraSans-Roman-30"/>
      </g>
     </g>
    </g>
    <g id="xtick_2">
     <g id="line2d_7">
      <g>
       <use style="stroke:#000000;stroke-width:0.5;" x="146.4" xlink:href="#m909b7837db" y="388.8"/>
      </g>
     </g>
     <g id="line2d_8">
      <g>
       <use style="stroke:#000000;stroke-width:0.5;" x="146.4" xlink:href="#m2b7e795995" y="43.2"/>
      </g>
     </g>
     <g id="text_2">
      <!-- 50 -->
      <defs>
       <path d="M 10.796875 72.90625 
L 49.515625 72.90625 
L 49.515625 64.59375 
L 19.828125 64.59375 
L 19.828125 46.734375 
Q 21.96875 47.46875 24.109375 47.828125 
Q 26.265625 48.1875 28.421875 48.1875 
Q 40.625 48.1875 47.75 41.5 
Q 54.890625 34.8125 54.890625 23.390625 
Q 54.890625 11.625 47.5625 5.09375 
Q 40.234375 -1.421875 26.90625 -1.421875 
Q 22.3125 -1.421875 17.546875 -0.640625 
Q 12.796875 0.140625 7.71875 1.703125 
L 7.71875 11.625 
Q 12.109375 9.234375 16.796875 8.0625 
Q 21.484375 6.890625 26.703125 6.890625 
Q 35.15625 6.890625 40.078125 11.328125 
Q 45.015625 15.765625 45.015625 23.390625 
Q 45.015625 31 40.078125 35.4375 
Q 35.15625 39.890625 26.703125 39.890625 
Q 22.75 39.890625 18.8125 39.015625 
Q 14.890625 38.140625 10.796875 36.28125 
z
" id="BitstreamVeraSans-Roman-35"/>
      </defs>
      <g transform="translate(138.765 401.918125)scale(0.12 -0.12)">
       <use xlink:href="#BitstreamVeraSans-Roman-35"/>
       <use x="63.623046875" xlink:href="#BitstreamVeraSans-Roman-30"/>
      </g>
     </g>
    </g>
    <g id="xtick_3">
     <g id="line2d_9">
      <g>
       <use style="stroke:#000000;stroke-width:0.5;" x="220.8" xlink:href="#m909b7837db" y="388.8"/>
      </g>
     </g>
     <g id="line2d_10">
      <g>
       <use style="stroke:#000000;stroke-width:0.5;" x="220.8" xlink:href="#m2b7e795995" y="43.2"/>
      </g>
     </g>
     <g id="text_3">
      <!-- 100 -->
      <defs>
       <path d="M 12.40625 8.296875 
L 28.515625 8.296875 
L 28.515625 63.921875 
L 10.984375 60.40625 
L 10.984375 69.390625 
L 28.421875 72.90625 
L 38.28125 72.90625 
L 38.28125 8.296875 
L 54.390625 8.296875 
L 54.390625 0 
L 12.40625 0 
z
" id="BitstreamVeraSans-Roman-31"/>
      </defs>
      <g transform="translate(209.3475 401.918125)scale(0.12 -0.12)">
       <use xlink:href="#BitstreamVeraSans-Roman-31"/>
       <use x="63.623046875" xlink:href="#BitstreamVeraSans-Roman-30"/>
       <use x="127.24609375" xlink:href="#BitstreamVeraSans-Roman-30"/>
      </g>
     </g>
    </g>
    <g id="xtick_4">
     <g id="line2d_11">
      <g>
       <use style="stroke:#000000;stroke-width:0.5;" x="295.2" xlink:href="#m909b7837db" y="388.8"/>
      </g>
     </g>
     <g id="line2d_12">
      <g>
       <use style="stroke:#000000;stroke-width:0.5;" x="295.2" xlink:href="#m2b7e795995" y="43.2"/>
      </g>
     </g>
     <g id="text_4">
      <!-- 150 -->
      <g transform="translate(283.7475 401.918125)scale(0.12 -0.12)">
       <use xlink:href="#BitstreamVeraSans-Roman-31"/>
       <use x="63.623046875" xlink:href="#BitstreamVeraSans-Roman-35"/>
       <use x="127.24609375" xlink:href="#BitstreamVeraSans-Roman-30"/>
      </g>
     </g>
    </g>
    <g id="xtick_5">
     <g id="line2d_13">
      <g>
       <use style="stroke:#000000;stroke-width:0.5;" x="369.6" xlink:href="#m909b7837db" y="388.8"/>
      </g>
     </g>
     <g id="line2d_14">
      <g>
       <use style="stroke:#000000;stroke-width:0.5;" x="369.6" xlink:href="#m2b7e795995" y="43.2"/>
      </g>
     </g>
     <g id="text_5">
      <!-- 200 -->
      <defs>
       <path d="M 19.1875 8.296875 
L 53.609375 8.296875 
L 53.609375 0 
L 7.328125 0 
L 7.328125 8.296875 
Q 12.9375 14.109375 22.625 23.890625 
Q 32.328125 33.6875 34.8125 36.53125 
Q 39.546875 41.84375 41.421875 45.53125 
Q 43.3125 49.21875 43.3125 52.78125 
Q 43.3125 58.59375 39.234375 62.25 
Q 35.15625 65.921875 28.609375 65.921875 
Q 23.96875 65.921875 18.8125 64.3125 
Q 13.671875 62.703125 7.8125 59.421875 
L 7.8125 69.390625 
Q 13.765625 71.78125 18.9375 73 
Q 24.125 74.21875 28.421875 74.21875 
Q 39.75 74.21875 46.484375 68.546875 
Q 53.21875 62.890625 53.21875 53.421875 
Q 53.21875 48.921875 51.53125 44.890625 
Q 49.859375 40.875 45.40625 35.40625 
Q 44.1875 33.984375 37.640625 27.21875 
Q 31.109375 20.453125 19.1875 8.296875 
" id="BitstreamVeraSans-Roman-32"/>
      </defs>
      <g transform="translate(358.1475 401.918125)scale(0.12 -0.12)">
       <use xlink:href="#BitstreamVeraSans-Roman-32"/>
       <use x="63.623046875" xlink:href="#BitstreamVeraSans-Roman-30"/>
       <use x="127.24609375" xlink:href="#BitstreamVeraSans-Roman-30"/>
      </g>
     </g>
    </g>
    <g id="xtick_6">
     <g id="line2d_15">
      <g>
       <use style="stroke:#000000;stroke-width:0.5;" x="444.0" xlink:href="#m909b7837db" y="388.8"/>
      </g>
     </g>
     <g id="line2d_16">
      <g>
       <use style="stroke:#000000;stroke-width:0.5;" x="444.0" xlink:href="#m2b7e795995" y="43.2"/>
      </g>
     </g>
     <g id="text_6">
      <!-- 250 -->
      <g transform="translate(432.5475 401.918125)scale(0.12 -0.12)">
       <use xlink:href="#BitstreamVeraSans-Roman-32"/>
       <use x="63.623046875" xlink:href="#BitstreamVeraSans-Roman-35"/>
       <use x="127.24609375" xlink:href="#BitstreamVeraSans-Roman-30"/>
      </g>
     </g>
    </g>
    <g id="xtick_7">
     <g id="line2d_17">
      <g>
       <use style="stroke:#000000;stroke-width:0.5;" x="518.4" xlink:href="#m909b7837db" y="388.8"/>
      </g>
     </g>
     <g id="line2d_18">
      <g>
       <use style="stroke:#000000;stroke-width:0.5;" x="518.4" xlink:href="#m2b7e795995" y="43.2"/>
      </g>
     </g>
     <g id="text_7">
      <!-- 300 -->
      <defs>
       <path d="M 40.578125 39.3125 
Q 47.65625 37.796875 51.625 33 
Q 55.609375 28.21875 55.609375 21.1875 
Q 55.609375 10.40625 48.1875 4.484375 
Q 40.765625 -1.421875 27.09375 -1.421875 
Q 22.515625 -1.421875 17.65625 -0.515625 
Q 12.796875 0.390625 7.625 2.203125 
L 7.625 11.71875 
Q 11.71875 9.328125 16.59375 8.109375 
Q 21.484375 6.890625 26.8125 6.890625 
Q 36.078125 6.890625 40.9375 10.546875 
Q 45.796875 14.203125 45.796875 21.1875 
Q 45.796875 27.640625 41.28125 31.265625 
Q 36.765625 34.90625 28.71875 34.90625 
L 20.21875 34.90625 
L 20.21875 43.015625 
L 29.109375 43.015625 
Q 36.375 43.015625 40.234375 45.921875 
Q 44.09375 48.828125 44.09375 54.296875 
Q 44.09375 59.90625 40.109375 62.90625 
Q 36.140625 65.921875 28.71875 65.921875 
Q 24.65625 65.921875 20.015625 65.03125 
Q 15.375 64.15625 9.8125 62.3125 
L 9.8125 71.09375 
Q 15.4375 72.65625 20.34375 73.4375 
Q 25.25 74.21875 29.59375 74.21875 
Q 40.828125 74.21875 47.359375 69.109375 
Q 53.90625 64.015625 53.90625 55.328125 
Q 53.90625 49.265625 50.4375 45.09375 
Q 46.96875 40.921875 40.578125 39.3125 
" id="BitstreamVeraSans-Roman-33"/>
      </defs>
      <g transform="translate(506.9475 401.918125)scale(0.12 -0.12)">
       <use xlink:href="#BitstreamVeraSans-Roman-33"/>
       <use x="63.623046875" xlink:href="#BitstreamVeraSans-Roman-30"/>
       <use x="127.24609375" xlink:href="#BitstreamVeraSans-Roman-30"/>
      </g>
     </g>
    </g>
   </g>
   <g id="matplotlib.axis_2">
    <g id="ytick_1">
     <g id="line2d_19">
      <defs>
       <path d="M 0 0 
L 4 0 
" id="mefbcc14b91" style="stroke:#000000;stroke-width:0.5;"/>
      </defs>
      <g>
       <use style="stroke:#000000;stroke-width:0.5;" x="72.0" xlink:href="#mefbcc14b91" y="388.8"/>
      </g>
     </g>
     <g id="line2d_20">
      <defs>
       <path d="M 0 0 
L -4 0 
" id="mafb787a840" style="stroke:#000000;stroke-width:0.5;"/>
      </defs>
      <g>
       <use style="stroke:#000000;stroke-width:0.5;" x="518.4" xlink:href="#mafb787a840" y="388.8"/>
      </g>
     </g>
     <g id="text_8">
      <!-- −1.0 -->
      <defs>
       <path d="M 10.59375 35.5 
L 73.1875 35.5 
L 73.1875 27.203125 
L 10.59375 27.203125 
z
" id="BitstreamVeraSans-Roman-2212"/>
       <path d="M 10.6875 12.40625 
L 21 12.40625 
L 21 0 
L 10.6875 0 
z
" id="BitstreamVeraSans-Roman-2e"/>
      </defs>
      <g transform="translate(38.860625 392.11125)scale(0.12 -0.12)">
       <use xlink:href="#BitstreamVeraSans-Roman-2212"/>
       <use x="83.7890625" xlink:href="#BitstreamVeraSans-Roman-31"/>
       <use x="147.412109375" xlink:href="#BitstreamVeraSans-Roman-2e"/>
       <use x="179.19921875" xlink:href="#BitstreamVeraSans-Roman-30"/>
      </g>
     </g>
    </g>
    <g id="ytick_2">
     <g id="line2d_21">
      <g>
       <use style="stroke:#000000;stroke-width:0.5;" x="72.0" xlink:href="#mefbcc14b91" y="331.2"/>
      </g>
     </g>
     <g id="line2d_22">
      <g>
       <use style="stroke:#000000;stroke-width:0.5;" x="518.4" xlink:href="#mafb787a840" y="331.2"/>
      </g>
     </g>
     <g id="text_9">
      <!-- −0.5 -->
      <g transform="translate(38.860625 334.51125)scale(0.12 -0.12)">
       <use xlink:href="#BitstreamVeraSans-Roman-2212"/>
       <use x="83.7890625" xlink:href="#BitstreamVeraSans-Roman-30"/>
       <use x="147.412109375" xlink:href="#BitstreamVeraSans-Roman-2e"/>
       <use x="179.19921875" xlink:href="#BitstreamVeraSans-Roman-35"/>
      </g>
     </g>
    </g>
    <g id="ytick_3">
     <g id="line2d_23">
      <g>
       <use style="stroke:#000000;stroke-width:0.5;" x="72.0" xlink:href="#mefbcc14b91" y="273.6"/>
      </g>
     </g>
     <g id="line2d_24">
      <g>
       <use style="stroke:#000000;stroke-width:0.5;" x="518.4" xlink:href="#mafb787a840" y="273.6"/>
      </g>
     </g>
     <g id="text_10">
      <!-- 0.0 -->
      <g transform="translate(48.91625 276.91125)scale(0.12 -0.12)">
       <use xlink:href="#BitstreamVeraSans-Roman-30"/>
       <use x="63.623046875" xlink:href="#BitstreamVeraSans-Roman-2e"/>
       <use x="95.41015625" xlink:href="#BitstreamVeraSans-Roman-30"/>
      </g>
     </g>
    </g>
    <g id="ytick_4">
     <g id="line2d_25">
      <g>
       <use style="stroke:#000000;stroke-width:0.5;" x="72.0" xlink:href="#mefbcc14b91" y="216.0"/>
      </g>
     </g>
     <g id="line2d_26">
      <g>
       <use style="stroke:#000000;stroke-width:0.5;" x="518.4" xlink:href="#mafb787a840" y="216.0"/>
      </g>
     </g>
     <g id="text_11">
      <!-- 0.5 -->
      <g transform="translate(48.91625 219.31125)scale(0.12 -0.12)">
       <use xlink:href="#BitstreamVeraSans-Roman-30"/>
       <use x="63.623046875" xlink:href="#BitstreamVeraSans-Roman-2e"/>
       <use x="95.41015625" xlink:href="#BitstreamVeraSans-Roman-35"/>
      </g>
     </g>
    </g>
    <g id="ytick_5">
     <g id="line2d_27">
      <g>
       <use style="stroke:#000000;stroke-width:0.5;" x="72.0" xlink:href="#mefbcc14b91" y="158.4"/>
      </g>
     </g>
     <g id="line2d_28">
      <g>
       <use style="stroke:#000000;stroke-width:0.5;" x="518.4" xlink:href="#mafb787a840" y="158.4"/>
      </g>
     </g>
     <g id="text_12">
      <!-- 1.0 -->
      <g transform="translate(48.91625 161.71125)scale(0.12 -0.12)">
       <use xlink:href="#BitstreamVeraSans-Roman-31"/>
       <use x="63.623046875" xlink:href="#BitstreamVeraSans-Roman-2e"/>
       <use x="95.41015625" xlink:href="#BitstreamVeraSans-Roman-30"/>
      </g>
     </g>
    </g>
    <g id="ytick_6">
     <g id="line2d_29">
      <g>
       <use style="stroke:#000000;stroke-width:0.5;" x="72.0" xlink:href="#mefbcc14b91" y="100.8"/>
      </g>
     </g>
     <g id="line2d_30">
      <g>
       <use style="stroke:#000000;stroke-width:0.5;" x="518.4" xlink:href="#mafb787a840" y="100.8"/>
      </g>
     </g>
     <g id="text_13">
      <!-- 1.5 -->
      <g transform="translate(48.91625 104.11125)scale(0.12 -0.12)">
       <use xlink:href="#BitstreamVeraSans-Roman-31"/>
       <use x="63.623046875" xlink:href="#BitstreamVeraSans-Roman-2e"/>
       <use x="95.41015625" xlink:href="#BitstreamVeraSans-Roman-35"/>
      </g>
     </g>
    </g>
    <g id="ytick_7">
     <g id="line2d_31">
      <g>
       <use style="stroke:#000000;stroke-width:0.5;" x="72.0" xlink:href="#mefbcc14b91" y="43.2"/>
      </g>
     </g>
     <g id="line2d_32">
      <g>
       <use style="stroke:#000000;stroke-width:0.5;" x="518.4" xlink:href="#mafb787a840" y="43.2"/>
      </g>
     </g>
     <g id="text_14">
      <!-- 2.0 -->
      <g transform="translate(48.91625 46.51125)scale(0.12 -0.12)">
       <use xlink:href="#BitstreamVeraSans-Roman-32"/>
       <use x="63.623046875" xlink:href="#BitstreamVeraSans-Roman-2e"/>
       <use x="95.41015625" xlink:href="#BitstreamVeraSans-Roman-30"/>
      </g>
     </g>
    </g>
   </g>
   <g id="legend_1">
    <g id="patch_7">
     <path d="M 219.312 97.506 
L 391.22325 97.506 
L 391.22325 8.64 
L 219.312 8.64 
z
" style="fill:#ffffff;stroke:#000000;stroke-linejoin:miter;"/>
    </g>
    <g id="line2d_33">
     <path d="M 229.392 20.30175 
L 249.552 20.30175 
" style="fill:none;stroke:#ff0000;stroke-linecap:square;"/>
    </g>
    <g id="line2d_34"/>
    <g id="text_15">
     <!-- ELU units -->
     <defs>
      <path id="BitstreamVeraSans-Roman-20"/>
      <path d="M 9.8125 72.90625 
L 19.671875 72.90625 
L 19.671875 8.296875 
L 55.171875 8.296875 
L 55.171875 0 
L 9.8125 0 
z
" id="BitstreamVeraSans-Roman-4c"/>
      <path d="M 54.890625 33.015625 
L 54.890625 0 
L 45.90625 0 
L 45.90625 32.71875 
Q 45.90625 40.484375 42.875 44.328125 
Q 39.84375 48.1875 33.796875 48.1875 
Q 26.515625 48.1875 22.3125 43.546875 
Q 18.109375 38.921875 18.109375 30.90625 
L 18.109375 0 
L 9.078125 0 
L 9.078125 54.6875 
L 18.109375 54.6875 
L 18.109375 46.1875 
Q 21.34375 51.125 25.703125 53.5625 
Q 30.078125 56 35.796875 56 
Q 45.21875 56 50.046875 50.171875 
Q 54.890625 44.34375 54.890625 33.015625 
" id="BitstreamVeraSans-Roman-6e"/>
      <path d="M 9.8125 72.90625 
L 55.90625 72.90625 
L 55.90625 64.59375 
L 19.671875 64.59375 
L 19.671875 43.015625 
L 54.390625 43.015625 
L 54.390625 34.71875 
L 19.671875 34.71875 
L 19.671875 8.296875 
L 56.78125 8.296875 
L 56.78125 0 
L 9.8125 0 
z
" id="BitstreamVeraSans-Roman-45"/>
      <path d="M 9.421875 54.6875 
L 18.40625 54.6875 
L 18.40625 0 
L 9.421875 0 
z
M 9.421875 75.984375 
L 18.40625 75.984375 
L 18.40625 64.59375 
L 9.421875 64.59375 
z
" id="BitstreamVeraSans-Roman-69"/>
      <path d="M 8.6875 72.90625 
L 18.609375 72.90625 
L 18.609375 28.609375 
Q 18.609375 16.890625 22.84375 11.734375 
Q 27.09375 6.59375 36.625 6.59375 
Q 46.09375 6.59375 50.34375 11.734375 
Q 54.59375 16.890625 54.59375 28.609375 
L 54.59375 72.90625 
L 64.5 72.90625 
L 64.5 27.390625 
Q 64.5 13.140625 57.4375 5.859375 
Q 50.390625 -1.421875 36.625 -1.421875 
Q 22.796875 -1.421875 15.734375 5.859375 
Q 8.6875 13.140625 8.6875 27.390625 
z
" id="BitstreamVeraSans-Roman-55"/>
      <path d="M 18.3125 70.21875 
L 18.3125 54.6875 
L 36.8125 54.6875 
L 36.8125 47.703125 
L 18.3125 47.703125 
L 18.3125 18.015625 
Q 18.3125 11.328125 20.140625 9.421875 
Q 21.96875 7.515625 27.59375 7.515625 
L 36.8125 7.515625 
L 36.8125 0 
L 27.59375 0 
Q 17.1875 0 13.234375 3.875 
Q 9.28125 7.765625 9.28125 18.015625 
L 9.28125 47.703125 
L 2.6875 47.703125 
L 2.6875 54.6875 
L 9.28125 54.6875 
L 9.28125 70.21875 
z
" id="BitstreamVeraSans-Roman-74"/>
      <path d="M 8.5 21.578125 
L 8.5 54.6875 
L 17.484375 54.6875 
L 17.484375 21.921875 
Q 17.484375 14.15625 20.5 10.265625 
Q 23.53125 6.390625 29.59375 6.390625 
Q 36.859375 6.390625 41.078125 11.03125 
Q 45.3125 15.671875 45.3125 23.6875 
L 45.3125 54.6875 
L 54.296875 54.6875 
L 54.296875 0 
L 45.3125 0 
L 45.3125 8.40625 
Q 42.046875 3.421875 37.71875 1 
Q 33.40625 -1.421875 27.6875 -1.421875 
Q 18.265625 -1.421875 13.375 4.4375 
Q 8.5 10.296875 8.5 21.578125 
" id="BitstreamVeraSans-Roman-75"/>
      <path d="M 44.28125 53.078125 
L 44.28125 44.578125 
Q 40.484375 46.53125 36.375 47.5 
Q 32.28125 48.484375 27.875 48.484375 
Q 21.1875 48.484375 17.84375 46.4375 
Q 14.5 44.390625 14.5 40.28125 
Q 14.5 37.15625 16.890625 35.375 
Q 19.28125 33.59375 26.515625 31.984375 
L 29.59375 31.296875 
Q 39.15625 29.25 43.1875 25.515625 
Q 47.21875 21.78125 47.21875 15.09375 
Q 47.21875 7.46875 41.1875 3.015625 
Q 35.15625 -1.421875 24.609375 -1.421875 
Q 20.21875 -1.421875 15.453125 -0.5625 
Q 10.6875 0.296875 5.421875 2 
L 5.421875 11.28125 
Q 10.40625 8.6875 15.234375 7.390625 
Q 20.0625 6.109375 24.8125 6.109375 
Q 31.15625 6.109375 34.5625 8.28125 
Q 37.984375 10.453125 37.984375 14.40625 
Q 37.984375 18.0625 35.515625 20.015625 
Q 33.0625 21.96875 24.703125 23.78125 
L 21.578125 24.515625 
Q 13.234375 26.265625 9.515625 29.90625 
Q 5.8125 33.546875 5.8125 39.890625 
Q 5.8125 47.609375 11.28125 51.796875 
Q 16.75 56 26.8125 56 
Q 31.78125 56 36.171875 55.265625 
Q 40.578125 54.546875 44.28125 53.078125 
" id="BitstreamVeraSans-Roman-73"/>
     </defs>
     <g transform="translate(265.392 25.34175)scale(0.144 -0.144)">
      <use xlink:href="#BitstreamVeraSans-Roman-45"/>
      <use x="63.18359375" xlink:href="#BitstreamVeraSans-Roman-4c"/>
      <use x="118.818359375" xlink:href="#BitstreamVeraSans-Roman-55"/>
      <use x="192.01171875" xlink:href="#BitstreamVeraSans-Roman-20"/>
      <use x="223.798828125" xlink:href="#BitstreamVeraSans-Roman-75"/>
      <use x="287.177734375" xlink:href="#BitstreamVeraSans-Roman-6e"/>
      <use x="350.556640625" xlink:href="#BitstreamVeraSans-Roman-69"/>
      <use x="378.33984375" xlink:href="#BitstreamVeraSans-Roman-74"/>
      <use x="417.548828125" xlink:href="#BitstreamVeraSans-Roman-73"/>
     </g>
    </g>
    <g id="line2d_35">
     <path d="M 229.392 41.43825 
L 249.552 41.43825 
" style="fill:none;stroke:#ff0000;stroke-dasharray:6.000000,6.000000;stroke-dashoffset:0.0;stroke-width:2.0;"/>
    </g>
    <g id="line2d_36"/>
    <g id="text_16">
     <!-- ELU mean - 0.16 -->
     <defs>
      <path d="M 56.203125 29.59375 
L 56.203125 25.203125 
L 14.890625 25.203125 
Q 15.484375 15.921875 20.484375 11.0625 
Q 25.484375 6.203125 34.421875 6.203125 
Q 39.59375 6.203125 44.453125 7.46875 
Q 49.3125 8.734375 54.109375 11.28125 
L 54.109375 2.78125 
Q 49.265625 0.734375 44.1875 -0.34375 
Q 39.109375 -1.421875 33.890625 -1.421875 
Q 20.796875 -1.421875 13.15625 6.1875 
Q 5.515625 13.8125 5.515625 26.8125 
Q 5.515625 40.234375 12.765625 48.109375 
Q 20.015625 56 32.328125 56 
Q 43.359375 56 49.78125 48.890625 
Q 56.203125 41.796875 56.203125 29.59375 
M 47.21875 32.234375 
Q 47.125 39.59375 43.09375 43.984375 
Q 39.0625 48.390625 32.421875 48.390625 
Q 24.90625 48.390625 20.390625 44.140625 
Q 15.875 39.890625 15.1875 32.171875 
z
" id="BitstreamVeraSans-Roman-65"/>
      <path d="M 52 44.1875 
Q 55.375 50.25 60.0625 53.125 
Q 64.75 56 71.09375 56 
Q 79.640625 56 84.28125 50.015625 
Q 88.921875 44.046875 88.921875 33.015625 
L 88.921875 0 
L 79.890625 0 
L 79.890625 32.71875 
Q 79.890625 40.578125 77.09375 44.375 
Q 74.3125 48.1875 68.609375 48.1875 
Q 61.625 48.1875 57.5625 43.546875 
Q 53.515625 38.921875 53.515625 30.90625 
L 53.515625 0 
L 44.484375 0 
L 44.484375 32.71875 
Q 44.484375 40.625 41.703125 44.40625 
Q 38.921875 48.1875 33.109375 48.1875 
Q 26.21875 48.1875 22.15625 43.53125 
Q 18.109375 38.875 18.109375 30.90625 
L 18.109375 0 
L 9.078125 0 
L 9.078125 54.6875 
L 18.109375 54.6875 
L 18.109375 46.1875 
Q 21.1875 51.21875 25.484375 53.609375 
Q 29.78125 56 35.6875 56 
Q 41.65625 56 45.828125 52.96875 
Q 50 49.953125 52 44.1875 
" id="BitstreamVeraSans-Roman-6d"/>
      <path d="M 34.28125 27.484375 
Q 23.390625 27.484375 19.1875 25 
Q 14.984375 22.515625 14.984375 16.5 
Q 14.984375 11.71875 18.140625 8.90625 
Q 21.296875 6.109375 26.703125 6.109375 
Q 34.1875 6.109375 38.703125 11.40625 
Q 43.21875 16.703125 43.21875 25.484375 
L 43.21875 27.484375 
z
M 52.203125 31.203125 
L 52.203125 0 
L 43.21875 0 
L 43.21875 8.296875 
Q 40.140625 3.328125 35.546875 0.953125 
Q 30.953125 -1.421875 24.3125 -1.421875 
Q 15.921875 -1.421875 10.953125 3.296875 
Q 6 8.015625 6 15.921875 
Q 6 25.140625 12.171875 29.828125 
Q 18.359375 34.515625 30.609375 34.515625 
L 43.21875 34.515625 
L 43.21875 35.40625 
Q 43.21875 41.609375 39.140625 45 
Q 35.0625 48.390625 27.6875 48.390625 
Q 23 48.390625 18.546875 47.265625 
Q 14.109375 46.140625 10.015625 43.890625 
L 10.015625 52.203125 
Q 14.9375 54.109375 19.578125 55.046875 
Q 24.21875 56 28.609375 56 
Q 40.484375 56 46.34375 49.84375 
Q 52.203125 43.703125 52.203125 31.203125 
" id="BitstreamVeraSans-Roman-61"/>
      <path d="M 4.890625 31.390625 
L 31.203125 31.390625 
L 31.203125 23.390625 
L 4.890625 23.390625 
z
" id="BitstreamVeraSans-Roman-2d"/>
      <path d="M 33.015625 40.375 
Q 26.375 40.375 22.484375 35.828125 
Q 18.609375 31.296875 18.609375 23.390625 
Q 18.609375 15.53125 22.484375 10.953125 
Q 26.375 6.390625 33.015625 6.390625 
Q 39.65625 6.390625 43.53125 10.953125 
Q 47.40625 15.53125 47.40625 23.390625 
Q 47.40625 31.296875 43.53125 35.828125 
Q 39.65625 40.375 33.015625 40.375 
M 52.59375 71.296875 
L 52.59375 62.3125 
Q 48.875 64.0625 45.09375 64.984375 
Q 41.3125 65.921875 37.59375 65.921875 
Q 27.828125 65.921875 22.671875 59.328125 
Q 17.53125 52.734375 16.796875 39.40625 
Q 19.671875 43.65625 24.015625 45.921875 
Q 28.375 48.1875 33.59375 48.1875 
Q 44.578125 48.1875 50.953125 41.515625 
Q 57.328125 34.859375 57.328125 23.390625 
Q 57.328125 12.15625 50.6875 5.359375 
Q 44.046875 -1.421875 33.015625 -1.421875 
Q 20.359375 -1.421875 13.671875 8.265625 
Q 6.984375 17.96875 6.984375 36.375 
Q 6.984375 53.65625 15.1875 63.9375 
Q 23.390625 74.21875 37.203125 74.21875 
Q 40.921875 74.21875 44.703125 73.484375 
Q 48.484375 72.75 52.59375 71.296875 
" id="BitstreamVeraSans-Roman-36"/>
     </defs>
     <g transform="translate(265.392 46.47825)scale(0.144 -0.144)">
      <use xlink:href="#BitstreamVeraSans-Roman-45"/>
      <use x="63.18359375" xlink:href="#BitstreamVeraSans-Roman-4c"/>
      <use x="118.818359375" xlink:href="#BitstreamVeraSans-Roman-55"/>
      <use x="192.01171875" xlink:href="#BitstreamVeraSans-Roman-20"/>
      <use x="223.798828125" xlink:href="#BitstreamVeraSans-Roman-6d"/>
      <use x="321.2109375" xlink:href="#BitstreamVeraSans-Roman-65"/>
      <use x="382.734375" xlink:href="#BitstreamVeraSans-Roman-61"/>
      <use x="444.013671875" xlink:href="#BitstreamVeraSans-Roman-6e"/>
      <use x="507.392578125" xlink:href="#BitstreamVeraSans-Roman-20"/>
      <use x="539.1796875" xlink:href="#BitstreamVeraSans-Roman-2d"/>
      <use x="575.263671875" xlink:href="#BitstreamVeraSans-Roman-20"/>
      <use x="607.05078125" xlink:href="#BitstreamVeraSans-Roman-30"/>
      <use x="670.673828125" xlink:href="#BitstreamVeraSans-Roman-2e"/>
      <use x="702.4609375" xlink:href="#BitstreamVeraSans-Roman-31"/>
      <use x="766.083984375" xlink:href="#BitstreamVeraSans-Roman-36"/>
     </g>
    </g>
    <g id="line2d_37">
     <path d="M 229.392 62.57475 
L 249.552 62.57475 
" style="fill:none;stroke:#000000;stroke-linecap:square;"/>
    </g>
    <g id="line2d_38"/>
    <g id="text_17">
     <!-- ReLU units -->
     <defs>
      <path d="M 44.390625 34.1875 
Q 47.5625 33.109375 50.5625 29.59375 
Q 53.5625 26.078125 56.59375 19.921875 
L 66.609375 0 
L 56 0 
L 46.6875 18.703125 
Q 43.0625 26.03125 39.671875 28.421875 
Q 36.28125 30.8125 30.421875 30.8125 
L 19.671875 30.8125 
L 19.671875 0 
L 9.8125 0 
L 9.8125 72.90625 
L 32.078125 72.90625 
Q 44.578125 72.90625 50.734375 67.671875 
Q 56.890625 62.453125 56.890625 51.90625 
Q 56.890625 45.015625 53.6875 40.46875 
Q 50.484375 35.9375 44.390625 34.1875 
M 19.671875 64.796875 
L 19.671875 38.921875 
L 32.078125 38.921875 
Q 39.203125 38.921875 42.84375 42.21875 
Q 46.484375 45.515625 46.484375 51.90625 
Q 46.484375 58.296875 42.84375 61.546875 
Q 39.203125 64.796875 32.078125 64.796875 
z
" id="BitstreamVeraSans-Roman-52"/>
     </defs>
     <g transform="translate(265.392 67.61475)scale(0.144 -0.144)">
      <use xlink:href="#BitstreamVeraSans-Roman-52"/>
      <use x="69.419921875" xlink:href="#BitstreamVeraSans-Roman-65"/>
      <use x="130.943359375" xlink:href="#BitstreamVeraSans-Roman-4c"/>
      <use x="186.578125" xlink:href="#BitstreamVeraSans-Roman-55"/>
      <use x="259.771484375" xlink:href="#BitstreamVeraSans-Roman-20"/>
      <use x="291.55859375" xlink:href="#BitstreamVeraSans-Roman-75"/>
      <use x="354.9375" xlink:href="#BitstreamVeraSans-Roman-6e"/>
      <use x="418.31640625" xlink:href="#BitstreamVeraSans-Roman-69"/>
      <use x="446.099609375" xlink:href="#BitstreamVeraSans-Roman-74"/>
      <use x="485.30859375" xlink:href="#BitstreamVeraSans-Roman-73"/>
     </g>
    </g>
    <g id="line2d_39">
     <path d="M 229.392 83.71125 
L 249.552 83.71125 
" style="fill:none;stroke:#000000;stroke-dasharray:6.000000,6.000000;stroke-dashoffset:0.0;stroke-width:2.0;"/>
    </g>
    <g id="line2d_40"/>
    <g id="text_18">
     <!-- ReLU mean - 0.4 -->
     <defs>
      <path d="M 37.796875 64.3125 
L 12.890625 25.390625 
L 37.796875 25.390625 
z
M 35.203125 72.90625 
L 47.609375 72.90625 
L 47.609375 25.390625 
L 58.015625 25.390625 
L 58.015625 17.1875 
L 47.609375 17.1875 
L 47.609375 0 
L 37.796875 0 
L 37.796875 17.1875 
L 4.890625 17.1875 
L 4.890625 26.703125 
z
" id="BitstreamVeraSans-Roman-34"/>
     </defs>
     <g transform="translate(265.392 88.75125)scale(0.144 -0.144)">
      <use xlink:href="#BitstreamVeraSans-Roman-52"/>
      <use x="69.419921875" xlink:href="#BitstreamVeraSans-Roman-65"/>
      <use x="130.943359375" xlink:href="#BitstreamVeraSans-Roman-4c"/>
      <use x="186.578125" xlink:href="#BitstreamVeraSans-Roman-55"/>
      <use x="259.771484375" xlink:href="#BitstreamVeraSans-Roman-20"/>
      <use x="291.55859375" xlink:href="#BitstreamVeraSans-Roman-6d"/>
      <use x="388.970703125" xlink:href="#BitstreamVeraSans-Roman-65"/>
      <use x="450.494140625" xlink:href="#BitstreamVeraSans-Roman-61"/>
      <use x="511.7734375" xlink:href="#BitstreamVeraSans-Roman-6e"/>
      <use x="575.15234375" xlink:href="#BitstreamVeraSans-Roman-20"/>
      <use x="606.939453125" xlink:href="#BitstreamVeraSans-Roman-2d"/>
      <use x="643.0234375" xlink:href="#BitstreamVeraSans-Roman-20"/>
      <use x="674.810546875" xlink:href="#BitstreamVeraSans-Roman-30"/>
      <use x="738.43359375" xlink:href="#BitstreamVeraSans-Roman-2e"/>
      <use x="770.220703125" xlink:href="#BitstreamVeraSans-Roman-34"/>
     </g>
    </g>
   </g>
  </g>
 </g>
 <defs>
  <clipPath id="p35956ffc88">
   <rect height="345.6" width="446.4" x="72.0" y="43.2"/>
  </clipPath>
 </defs>
</svg>
